<svg xmlns="http://www.w3.org/2000/svg" viewBox="0 0 23 23"><path d="M1 1h7v7h-7zM11 1h1v1h1v-1h1v3h-2v-1h-1zM15 1h7v7h-7zM2 2v5h5v-5zM16 2v5h5v-5zM3 3h3v3h-3zM9 3h1v1h2v1h-2v4h-1zM17 3h3v3h-3zM13 5h1v1h-1zM11 6h2v1h-1v1h-1zM13 7h1v1h-1zM1 9h1v2h-1zM3 9h5v1h-1v1h-1v-1h-1v1h-1v-1h-1zM12 9h1v1h1v2h1v1h1v1h-2v1h-1v-2h-1v-1h1v-1h-1v1h-1v-1h-2v-1h3zM15 9h5v2h1v1h-1v1h-1v1h-1v1h-2v-1h1v-1h-1v-1h2v-1h1v-1h-1v1h-3zM21 10h1v1h-1zM2 11h1v1h-1zM7 11h2v1h1v1h-1v1h-3v-1h2v-1h-1zM1 12h1v1h-1zM4 12h2v1h-2zM2 13h1v1h-1zM20 13h1v1h-1zM9 14h1v1h-1zM19 14h1v1h-1zM21 14h1v1h-1zM1 15h7v7h-7zM10 15h1v2h2v1h3v-1h1v1h1v1h-2v1h1v1h1v1h-2v-1h-2v1h-1v-1h-1v-1h1v-1h-1v-1h-1v1h-1v1h-1v-4h1zM12 15h1v1h-1zM14 15h2v1h-2zM20 15h1v2h-2v1h-1v-2h2zM2 16v5h5v-5zM3 17h3v3h-3zM21 17h1v1h-1zM19 18h1v1h-1zM14 19v1h1v-1zM18 19h1v1h1v1h-2zM10 20h1v2h-2v-1h1zM20 21h1v1h-1z"/></svg>